PathFileType	4	(X/Y/Z)	/Users/itak/Documents/Research/Walk-IL/dataset/trc/00049_00006.trc
DataRate	CameraRate	NumFrames	NumMarkers	Units	OrigDataRate	OrigDataStartFrame	OrigNumFrames
100.000000	100.000000	4	53	mm	100.000000	436	499
Frame#	Time	RPSI			LPSI			L3			STRN			T10			C7			CLAV			RBAK			LBAK			LSHO			LUPA			LAEL			LAOL			LWTS			LWPS			LFRA			LIFD			LHPS			LHTS			RSHO			RUPA			RAEL			RAOL			RWTS			RWPS			RFRA			RIFD			RHTS			RHPS			RBHD			LFHD			RFHD			LBHD			LHIP			RHIP			RASI			LASI			LKNE			LTHI			LANK			LTIP			LTOE			LMT1			LMT5			LHEE			RKNE			RTHI			RANK			RTIP			RTOE			RMT1			RMT5			RHEE			
		X1	Y1	Z1	X2	Y2	Z2	X3	Y3	Z3	X4	Y4	Z4	X5	Y5	Z5	X6	Y6	Z6	X7	Y7	Z7	X8	Y8	Z8	X9	Y9	Z9	X10	Y10	Z10	X11	Y11	Z11	X12	Y12	Z12	X13	Y13	Z13	X14	Y14	Z14	X15	Y15	Z15	X16	Y16	Z16	X17	Y17	Z17	X18	Y18	Z18	X19	Y19	Z19	X20	Y20	Z20	X21	Y21	Z21	X22	Y22	Z22	X23	Y23	Z23	X24	Y24	Z24	X25	Y25	Z25	X26	Y26	Z26	X27	Y27	Z27	X28	Y28	Z28	X29	Y29	Z29	X30	Y30	Z30	X31	Y31	Z31	X32	Y32	Z32	X33	Y33	Z33	X34	Y34	Z34	X35	Y35	Z35	X36	Y36	Z36	X37	Y37	Z37	X38	Y38	Z38	X39	Y39	Z39	X40	Y40	Z40	X41	Y41	Z41	X42	Y42	Z42	X43	Y43	Z43	X44	Y44	Z44	X45	Y45	Z45	X46	Y46	Z46	X47	Y47	Z47	X48	Y48	Z48	X49	Y49	Z49	X50	Y50	Z50	X51	Y51	Z51	X52	Y52	Z52	X53	Y53	Z53	

437	4.36	-744.6255493164062	1035.420776367188	-113.0475158691406	-764.1004638671875	1027.134033203125	-287.6951904296875	-750.6727294921875	1086.380493164062	-206.7638854980469	-499.4971618652344	1284.617553710938	-218.0746307373047	-768.294677734375	1222.04931640625	-209.5370941162109	-708.7429809570312	1488.234497070312	-216.4512329101562	-528.6033935546875	1399.510498046875	-220.3263702392578	-766.71826171875	1350.180419921875	-138.1160278320312	-733.1036987304688	1449.581298828125	-316.1653747558594	-632.5804443359375	1453.70654296875	-392.5588989257812	-653.2859497070312	1325.52392578125	-468.6396484375	-635.0219116210938	1108.385009765625	-480.9353942871094	-697.5618286132812	1098.018310546875	-394.9332580566406	-547.8223876953125	869.9556274414062	-407.9349670410156	-605.308837890625	858.0637817382812	-468.1803894042969	-615.68896484375	998.819580078125	-484.4785766601562	-540.5767211914062	685.3168334960938	-381.5511169433594	-573.1873779296875	776.6986694335938	-460.8056335449219	-526.552001953125	787.43994140625	-407.8628845214844	-638.178466796875	1454.035400390625	-42.7610969543457	-648.35595703125	1385.651977539062	21.2800350189209	-685.9502563476562	1125.431274414062	57.78739166259766	-669.0576171875	1098.768188476562	-37.2735481262207	-556.1268920898438	866.900634765625	27.57756805419922	-626.1224365234375	856.6741333007812	81.29371643066406	-676.6558227539062	1045.294067382812	68.48860168457031	-566.6051635742188	680.2985229492188	9.031228065490723	-538.6968383789062	763.0160522460938	29.76151847839355	-593.3685302734375	764.255859375	84.77811431884766	-673.1686401367188	1670.01416015625	-281.0730285644531	-508.9176635742188	1700.019165039062	-144.0170135498047	-498.951416015625	1709.790405273438	-269.3677062988281	-673.7689819335938	1652.357666015625	-144.1303558349609	-668.0958251953125	962.4904174804688	-384.415771484375	-673.9197387695312	965.9337158203125	-38.63137435913086	-551.0056762695312	979.143310546875	-70.04389953613281	-551.9041748046875	970.3807983398438	-337.7657165527344	-600.9960327148438	497.2760009765625	-352.6002197265625	-631.5327758789062	639.5781860351562	-381.9566650390625	-753.8726196289062	50.85583114624023	-373.0729370117188	-687.3880615234375	262.1923522949219	-375.9467163085938	-550.5350341796875	42.9754753112793	-391.5293273925781	-591.6724853515625	42.3405876159668	-331.3922119140625	-656.61181640625	40.49671173095703	-423.2860107421875	-797.1293334960938	46.90387725830078	-291.5409851074219	-626.7957763671875	517.0838012695312	-77.19696807861328	-601.4628295898438	786.0121459960938	-40.28417587280273	-710.11962890625	42.35195159912109	-104.590087890625	-650.6036987304688	395.3087768554688	-77.595703125	-494.2145690917969	42.15658950805664	-140.8267517089844	-555.0963745117188	46.41640090942383	-180.5548706054688	-584.9244995117188	50.1562385559082	-87.67897033691406	-757.9390869140625	44.16066741943359	-162.5249786376953	
438	4.37	-745.1212158203125	1035.184326171875	-113.8738098144531	-764.5101928710938	1026.827514648438	-288.5406494140625	-751.2111206054688	1086.206787109375	-207.5438537597656	-500.2690124511719	1284.63818359375	-218.8069305419922	-768.921875	1221.89990234375	-210.1845855712891	-709.6428833007812	1488.121459960938	-217.1783294677734	-529.44970703125	1399.509521484375	-221.091552734375	-767.4722290039062	1350.078125	-138.7988586425781	-734.0137939453125	1449.392944335938	-316.8554382324219	-633.5281372070312	1453.539306640625	-393.2910766601562	-654.1837158203125	1325.401977539062	-469.4303894042969	-635.6596069335938	1108.298095703125	-482.129150390625	-698.309814453125	1097.73876953125	-396.2146911621094	-548.0493774414062	870.05078125	-409.0663757324219	-605.4468994140625	858.0079956054688	-469.3673095703125	-616.1276245117188	998.7518310546875	-485.6967468261719	-540.2062377929688	685.4854125976562	-382.6299133300781	-573.0623779296875	776.7386474609375	-461.9455261230469	-526.5039672851562	787.6901245117188	-408.9442443847656	-638.9630126953125	1453.996704101562	-43.47070693969727	-649.1282958984375	1385.564453125	20.55301666259766	-686.7161865234375	1125.263427734375	56.63050842285156	-669.8448486328125	1098.76318359375	-38.46719741821289	-556.927490234375	866.777587890625	25.92182350158691	-626.9631958007812	856.40380859375	79.5487060546875	-677.4288330078125	1045.06591796875	67.18343353271484	-567.304443359375	680.2193603515625	6.88812255859375	-539.4921264648438	762.9083862304688	27.87205123901367	-594.17041015625	763.9606323242188	82.82017517089844	-674.0934448242188	1669.9140625	-281.9255676269531	-509.964599609375	1700.064697265625	-144.7754821777344	-499.9467468261719	1709.786376953125	-270.1204528808594	-674.7627563476562	1652.242553710938	-144.9713745117188	-668.283447265625	962.3372192382812	-385.1658325195312	-674.3927001953125	965.8107299804688	-39.42119979858398	-551.4368896484375	979.2020874023438	-70.71245574951172	-552.106689453125	970.3898315429688	-338.4622497558594	-601.1080932617188	497.2471618652344	-352.8379211425781	-631.5682983398438	639.4984741210938	-382.3053283691406	-753.8567504882812	50.86676406860352	-373.0375061035156	-687.35986328125	262.1317138671875	-376.0675048828125	-550.522705078125	42.96029663085938	-391.5204467773438	-591.6311645507812	42.31219100952148	-331.3572692871094	-656.5732421875	40.49787139892578	-423.2404479980469	-797.1235961914062	46.90365219116211	-291.5152587890625	-627.4132690429688	517.1390380859375	-77.55614471435547	-601.9219360351562	786.0795288085938	-40.86627197265625	-710.0869140625	42.40534591674805	-104.6699981689453	-651.1395874023438	395.4324645996094	-77.86510467529297	-494.1838684082031	42.16142654418945	-140.7109985351562	-555.0571899414062	46.36931610107422	-180.5543212890625	-584.8859252929688	50.13967514038086	-87.69873809814453	-757.9197387695312	44.1981086730957	-162.605712890625	
439	4.38	-745.5888671875	1034.971313476562	-114.6928634643555	-764.854248046875	1026.533569335938	-289.3834838867188	-751.708740234375	1086.01611328125	-208.3327484130859	-501.0133972167969	1284.668823242188	-219.5374450683594	-769.4736328125	1221.740234375	-210.8426666259766	-710.5364990234375	1487.996215820312	-217.8886871337891	-530.2775268554688	1399.517578125	-221.8516235351562	-768.2030029296875	1349.964233398438	-139.4652252197266	-734.9275512695312	1449.19482421875	-317.5270385742188	-634.4843139648438	1453.371215820312	-394.013916015625	-655.0703125	1325.260620117188	-470.1874694824219	-636.2167358398438	1108.208740234375	-483.2693481445312	-698.9896850585938	1097.439086914062	-397.4393615722656	-548.2154541015625	870.1131591796875	-410.2236328125	-605.5194702148438	857.9558715820312	-470.5975646972656	-616.4823608398438	998.688720703125	-486.890869140625	-539.8222045898438	685.6016845703125	-383.8311767578125	-572.8873901367188	776.7793579101562	-463.1648254394531	-526.4098510742188	787.895263671875	-410.0855102539062	-639.7268676757812	1453.950561523438	-44.16923904418945	-649.8652954101562	1385.467529296875	19.84047317504883	-687.43896484375	1125.095947265625	55.52633285522461	-670.5997314453125	1098.75048828125	-39.60603332519531	-557.6526489257812	866.6779174804688	24.2967586517334	-627.7113037109375	856.128662109375	77.83928680419922	-678.1421508789062	1044.836303710938	65.93465423583984	-567.8486328125	680.1757202148438	4.755902767181396	-540.1591796875	762.84326171875	26.00239944458008	-594.8545532226562	763.6692504882812	80.8819580078125	-674.98095703125	1669.823364257812	-282.773681640625	-510.9637451171875	1700.103759765625	-145.5414428710938	-500.9165954589844	1709.770385742188	-270.8760375976562	-675.7169799804688	1652.138305664062	-145.8033142089844	-668.38134765625	962.1808471679688	-385.8976745605469	-674.8575439453125	965.7088012695312	-40.194580078125	-551.8514404296875	979.2708129882812	-71.35308837890625	-552.2545166015625	970.3958740234375	-339.126953125	-601.1314086914062	497.2137451171875	-353.0023193359375	-631.4923706054688	639.4113159179688	-382.6332092285156	-753.8372802734375	50.88410568237305	-373.0012512207031	-687.26220703125	262.0522155761719	-376.1654968261719	-550.5169677734375	42.95302963256836	-391.5048522949219	-591.587158203125	42.28433990478516	-331.31494140625	-656.5372924804688	40.51306915283203	-423.1912536621094	-797.1157836914062	46.90399169921875	-291.4903564453125	-627.9260864257812	517.200927734375	-77.88715362548828	-602.3206787109375	786.1655883789062	-41.43987274169922	-710.0639038085938	42.44728851318359	-104.7311782836914	-651.5736083984375	395.5447692871094	-78.12006378173828	-494.1618347167969	42.17100143432617	-140.6007232666016	-555.0289916992188	46.34070587158203	-180.5462493896484	-584.8546752929688	50.12537384033203	-87.70435333251953	-757.8968505859375	44.22162246704102	-162.6643829345703	
440	4.39	-746.0291137695312	1034.789672851562	-115.5007400512695	-765.131103515625	1026.26904296875	-290.2189331054688	-752.1669311523438	1085.81982421875	-209.1251678466797	-501.7296752929688	1284.716552734375	-220.2667999267578	-769.9624633789062	1221.575805664062	-211.5061950683594	-711.419677734375	1487.864990234375	-218.5825958251953	-531.0870361328125	1399.541748046875	-222.6068420410156	-768.9103393554688	1349.844482421875	-140.1160888671875	-735.8397827148438	1448.999267578125	-318.1817932128906	-635.4432373046875	1453.21875	-394.727783203125	-655.9429321289062	1325.118774414062	-470.9139404296875	-636.6998901367188	1108.134155273438	-484.3455200195312	-699.5931396484375	1097.142211914062	-398.5902709960938	-548.3267211914062	870.1591186523438	-411.4046325683594	-605.5411376953125	857.9246215820312	-471.861572265625	-616.7630615234375	998.6473999023438	-488.0516662597656	-539.4463500976562	685.6773681640625	-385.1542053222656	-572.682861328125	776.8339233398438	-464.4578552246094	-526.28564453125	788.060546875	-411.2887878417969	-640.4705200195312	1453.905883789062	-44.85805130004883	-650.568115234375	1385.369873046875	19.14062881469727	-688.1129150390625	1124.936767578125	54.46783828735352	-671.314453125	1098.737548828125	-40.69773864746094	-558.3072509765625	866.6013793945312	22.70392799377441	-628.3683471679688	855.8626098632812	76.17430877685547	-678.7932739257812	1044.6171875	64.73569488525391	-568.2740478515625	680.1660766601562	2.656760215759277	-540.7149047851562	762.81591796875	24.16039657592773	-595.4357299804688	763.3935546875	78.98044586181641	-675.83642578125	1669.748657226562	-283.6118774414062	-511.9141540527344	1700.138671875	-146.3140716552734	-501.8614807128906	1709.748901367188	-271.6333618164062	-676.633544921875	1652.053100585938	-146.6225280761719	-668.386962890625	962.027587890625	-386.6021423339844	-675.3145141601562	965.633544921875	-40.94828033447266	-552.2545776367188	979.350830078125	-71.96239471435547	-552.3590087890625	970.4047241210938	-339.756591796875	-601.0762939453125	497.1789855957031	-353.1128845214844	-631.323974609375	639.3232421875	-382.9486694335938	-753.8142700195312	50.9053840637207	-372.9679260253906	-687.1084594726562	261.9601440429688	-376.2489013671875	-550.51611328125	42.95138168334961	-391.4855651855469	-591.54345703125	42.25848007202148	-331.2689819335938	-656.5045166015625	40.53745651245117	-423.1419067382812	-797.1048583984375	46.90670776367188	-291.4694519042969	-628.3240356445312	517.2670288085938	-78.20073699951172	-602.652587890625	786.27294921875	-42.00696182250977	-710.0467529296875	42.48283767700195	-104.7796401977539	-651.89697265625	395.6456604003906	-78.37461090087891	-494.1449890136719	42.18218612670898	-140.49658203125	-555.0076904296875	46.32241439819336	-180.5352630615234	-584.8286743164062	50.11413192749023	-87.70234680175781	-757.86572265625	44.23355865478516	-162.7073059082031	
